<svg class="animated" id="freepik_stories-drone-delivery" xmlns="http://www.w3.org/2000/svg" xmlns:xlink="http://www.w3.org/1999/xlink" viewBox="0 0 500 500" version="1.1" xmlns:svgjs="http://svgjs.com/svgjs"><style>svg#freepik_stories-drone-delivery:not(.animated) .animable {opacity: 0;}svg#freepik_stories-drone-delivery.animated #freepik--Drone--inject-3 {animation: 3s Infinite  linear floating;animation-delay: 0s;}            @keyframes floating {                0% {                    opacity: 1;                    transform: translateY(0px);                }                50% {                    transform: translateY(-10px);                }                100% {                    opacity: 1;                    transform: translateY(0px);                }            }        </style><g id="freepik--background-simple--inject-3" class="animable" style="transform-origin: 243.883px 233.11px;"><path d="M416.47,138.76S391.36,87.59,335.92,80,241.78,109.38,201,128.33c-21.36,9.93-45.76,6.07-68.44,10.88C60,154.57,32.7,250.8,62.9,305.52c26.16,47.38,72.18,72,142.27,77.7s119.25,12.32,182-34.11S445.76,206,416.47,138.76Z" style="fill: rgb(10, 58, 64); transform-origin: 243.883px 233.11px;" id="elkj9151v9tdf" class="animable"></path><g id="ell3agpqnpq5"><path d="M416.47,138.76S391.36,87.59,335.92,80,241.78,109.38,201,128.33c-21.36,9.93-45.76,6.07-68.44,10.88C60,154.57,32.7,250.8,62.9,305.52c26.16,47.38,72.18,72,142.27,77.7s119.25,12.32,182-34.11S445.76,206,416.47,138.76Z" style="fill: rgb(255, 255, 255); opacity: 0.7; transform-origin: 243.883px 233.11px;" class="animable"></path></g></g><g id="freepik--House--inject-3" class="animable" style="transform-origin: 207.665px 239.665px;"><polyline points="254.8 387.18 358.33 387.18 358.33 69" style="fill: none; stroke: rgb(38, 50, 56); stroke-linecap: round; stroke-linejoin: round; transform-origin: 306.565px 228.09px;" id="eleddqjpxbuqa" class="animable"></polyline><line x1="155.42" y1="387.18" x2="59" y2="387.18" style="fill: none; stroke: rgb(38, 50, 56); stroke-linecap: round; stroke-linejoin: round; transform-origin: 107.21px 387.18px;" id="elspw1x092fn9" class="animable"></line><polyline points="106.61 207.13 106.61 212.6 128.91 212.6" style="fill: none; stroke: rgb(38, 50, 56); stroke-linecap: round; stroke-linejoin: round; transform-origin: 117.76px 209.865px;" id="elg9aj3wuyow" class="animable"></polyline><polyline points="117.55 213.87 117.55 220.18 103.67 220.18" style="fill: none; stroke: rgb(38, 50, 56); stroke-linecap: round; stroke-linejoin: round; transform-origin: 110.61px 217.025px;" id="el9g9dys57v3" class="animable"></polyline><polyline points="107.03 222.28 107.03 227.32 125.12 227.32" style="fill: none; stroke: rgb(38, 50, 56); stroke-linecap: round; stroke-linejoin: round; transform-origin: 116.075px 224.8px;" id="ele5jpa9vy8xa" class="animable"></polyline><line x1="123.44" y1="220.6" x2="133.53" y2="220.6" style="fill: none; stroke: rgb(38, 50, 56); stroke-linecap: round; stroke-linejoin: round; transform-origin: 128.485px 220.6px;" id="el262hqxhav5r" class="animable"></line><line x1="117.55" y1="229.85" x2="117.55" y2="237" style="fill: none; stroke: rgb(38, 50, 56); stroke-linecap: round; stroke-linejoin: round; transform-origin: 117.55px 233.425px;" id="eljb8emaz8cy" class="animable"></line><line x1="131.43" y1="211.76" x2="131.43" y2="206.29" style="fill: none; stroke: rgb(38, 50, 56); stroke-linecap: round; stroke-linejoin: round; transform-origin: 131.43px 209.025px;" id="el146gfksf8ln" class="animable"></line><line x1="118.39" y1="204.61" x2="118.39" y2="198.72" style="fill: none; stroke: rgb(38, 50, 56); stroke-linecap: round; stroke-linejoin: round; transform-origin: 118.39px 201.665px;" id="el7x9hiqs6edk" class="animable"></line><line x1="125.96" y1="205.45" x2="139" y2="205.45" style="fill: none; stroke: rgb(38, 50, 56); stroke-linecap: round; stroke-linejoin: round; transform-origin: 132.48px 205.45px;" id="elzfaia7rqq9" class="animable"></line><polyline points="59.94 207.13 59.94 212.6 82.24 212.6" style="fill: none; stroke: rgb(38, 50, 56); stroke-linecap: round; stroke-linejoin: round; transform-origin: 71.09px 209.865px;" id="el2e5lat6rgsy" class="animable"></polyline><polyline points="70.88 213.87 70.88 220.18 57 220.18" style="fill: none; stroke: rgb(38, 50, 56); stroke-linecap: round; stroke-linejoin: round; transform-origin: 63.94px 217.025px;" id="elwdxsw95zcur" class="animable"></polyline><polyline points="60.37 222.28 60.37 227.32 78.45 227.32" style="fill: none; stroke: rgb(38, 50, 56); stroke-linecap: round; stroke-linejoin: round; transform-origin: 69.41px 224.8px;" id="elhje8mz1dqjg" class="animable"></polyline><line x1="76.77" y1="220.6" x2="86.87" y2="220.6" style="fill: none; stroke: rgb(38, 50, 56); stroke-linecap: round; stroke-linejoin: round; transform-origin: 81.82px 220.6px;" id="ela4fwvyt4fad" class="animable"></line><line x1="70.88" y1="229.85" x2="70.88" y2="237" style="fill: none; stroke: rgb(38, 50, 56); stroke-linecap: round; stroke-linejoin: round; transform-origin: 70.88px 233.425px;" id="el1896xh5fe1s" class="animable"></line><line x1="84.76" y1="211.76" x2="84.76" y2="206.29" style="fill: none; stroke: rgb(38, 50, 56); stroke-linecap: round; stroke-linejoin: round; transform-origin: 84.76px 209.025px;" id="elpljs8zwvllr" class="animable"></line><line x1="71.72" y1="204.61" x2="71.72" y2="198.72" style="fill: none; stroke: rgb(38, 50, 56); stroke-linecap: round; stroke-linejoin: round; transform-origin: 71.72px 201.665px;" id="elr1afl1jkuvq" class="animable"></line><line x1="79.29" y1="205.45" x2="92.33" y2="205.45" style="fill: none; stroke: rgb(38, 50, 56); stroke-linecap: round; stroke-linejoin: round; transform-origin: 85.81px 205.45px;" id="elau2rtzjd2r" class="animable"></line><polyline points="80.18 242.27 80.18 247.74 102.48 247.74" style="fill: none; stroke: rgb(38, 50, 56); stroke-linecap: round; stroke-linejoin: round; transform-origin: 91.33px 245.005px;" id="elevv6gw6pqvm" class="animable"></polyline><polyline points="91.12 249 91.12 255.31 77.24 255.31" style="fill: none; stroke: rgb(38, 50, 56); stroke-linecap: round; stroke-linejoin: round; transform-origin: 84.18px 252.155px;" id="el0yfccji56pz" class="animable"></polyline><polyline points="80.6 257.41 80.6 262.46 98.69 262.46" style="fill: none; stroke: rgb(38, 50, 56); stroke-linecap: round; stroke-linejoin: round; transform-origin: 89.645px 259.935px;" id="elbv590mq3qkw" class="animable"></polyline><line x1="97.01" y1="255.73" x2="107.1" y2="255.73" style="fill: none; stroke: rgb(38, 50, 56); stroke-linecap: round; stroke-linejoin: round; transform-origin: 102.055px 255.73px;" id="el8dhpkxltdpl" class="animable"></line><line x1="91.12" y1="264.98" x2="91.12" y2="272.13" style="fill: none; stroke: rgb(38, 50, 56); stroke-linecap: round; stroke-linejoin: round; transform-origin: 91.12px 268.555px;" id="elb8vwuxhaasb" class="animable"></line><line x1="105" y1="246.9" x2="105" y2="241.43" style="fill: none; stroke: rgb(38, 50, 56); stroke-linecap: round; stroke-linejoin: round; transform-origin: 105px 244.165px;" id="el3odrskex2ab" class="animable"></line><line x1="91.96" y1="239.75" x2="91.96" y2="233.86" style="fill: none; stroke: rgb(38, 50, 56); stroke-linecap: round; stroke-linejoin: round; transform-origin: 91.96px 236.805px;" id="elqp9qp4kfkub" class="animable"></line><line x1="99.53" y1="240.59" x2="112.57" y2="240.59" style="fill: none; stroke: rgb(38, 50, 56); stroke-linecap: round; stroke-linejoin: round; transform-origin: 106.05px 240.59px;" id="eluh7nxd7l7j9" class="animable"></line><polyline points="94.49 167.13 94.49 172.6 116.79 172.6" style="fill: none; stroke: rgb(38, 50, 56); stroke-linecap: round; stroke-linejoin: round; transform-origin: 105.64px 169.865px;" id="elr6gekbt57os" class="animable"></polyline><polyline points="105.43 173.87 105.43 180.18 91.55 180.18" style="fill: none; stroke: rgb(38, 50, 56); stroke-linecap: round; stroke-linejoin: round; transform-origin: 98.49px 177.025px;" id="elz11av919gqa" class="animable"></polyline><polyline points="94.91 182.28 94.91 187.32 113 187.32" style="fill: none; stroke: rgb(38, 50, 56); stroke-linecap: round; stroke-linejoin: round; transform-origin: 103.955px 184.8px;" id="el1lw4e9xidvk" class="animable"></polyline><line x1="111.32" y1="180.6" x2="121.41" y2="180.6" style="fill: none; stroke: rgb(38, 50, 56); stroke-linecap: round; stroke-linejoin: round; transform-origin: 116.365px 180.6px;" id="elevqbzdjxtzg" class="animable"></line><line x1="105.43" y1="189.85" x2="105.43" y2="197" style="fill: none; stroke: rgb(38, 50, 56); stroke-linecap: round; stroke-linejoin: round; transform-origin: 105.43px 193.425px;" id="elt7fams3bxql" class="animable"></line><line x1="119.31" y1="171.76" x2="119.31" y2="166.29" style="fill: none; stroke: rgb(38, 50, 56); stroke-linecap: round; stroke-linejoin: round; transform-origin: 119.31px 169.025px;" id="elt9jtp3zh8w" class="animable"></line><line x1="106.27" y1="164.61" x2="106.27" y2="158.72" style="fill: none; stroke: rgb(38, 50, 56); stroke-linecap: round; stroke-linejoin: round; transform-origin: 106.27px 161.665px;" id="elty5b48gpgvq" class="animable"></line><line x1="113.84" y1="165.45" x2="126.88" y2="165.45" style="fill: none; stroke: rgb(38, 50, 56); stroke-linecap: round; stroke-linejoin: round; transform-origin: 120.36px 165.45px;" id="el0gxvkhojbhoo" class="animable"></line><polyline points="266.18 265.84 266.18 271.31 288.48 271.31" style="fill: none; stroke: rgb(38, 50, 56); stroke-linecap: round; stroke-linejoin: round; transform-origin: 277.33px 268.575px;" id="elm3k7jwk3sjo" class="animable"></polyline><polyline points="277.12 272.57 277.12 278.88 263.24 278.88" style="fill: none; stroke: rgb(38, 50, 56); stroke-linecap: round; stroke-linejoin: round; transform-origin: 270.18px 275.725px;" id="el7i0bm32pim5" class="animable"></polyline><polyline points="266.6 280.98 266.6 286.03 284.69 286.03" style="fill: none; stroke: rgb(38, 50, 56); stroke-linecap: round; stroke-linejoin: round; transform-origin: 275.645px 283.505px;" id="el104ixy3bqjvh" class="animable"></polyline><line x1="283.01" y1="279.3" x2="293.1" y2="279.3" style="fill: none; stroke: rgb(38, 50, 56); stroke-linecap: round; stroke-linejoin: round; transform-origin: 288.055px 279.3px;" id="el34646uonop4" class="animable"></line><line x1="277.12" y1="288.56" x2="277.12" y2="295.71" style="fill: none; stroke: rgb(38, 50, 56); stroke-linecap: round; stroke-linejoin: round; transform-origin: 277.12px 292.135px;" id="elsj7ta87145" class="animable"></line><line x1="291" y1="270.47" x2="291" y2="265" style="fill: none; stroke: rgb(38, 50, 56); stroke-linecap: round; stroke-linejoin: round; transform-origin: 291px 267.735px;" id="el9chidixq75i" class="animable"></line><line x1="277.96" y1="263.32" x2="277.96" y2="257.43" style="fill: none; stroke: rgb(38, 50, 56); stroke-linecap: round; stroke-linejoin: round; transform-origin: 277.96px 260.375px;" id="elm81dnmnog0t" class="animable"></line><line x1="285.53" y1="264.16" x2="298.57" y2="264.16" style="fill: none; stroke: rgb(38, 50, 56); stroke-linecap: round; stroke-linejoin: round; transform-origin: 292.05px 264.16px;" id="el9d97wfm3yjr" class="animable"></line><polyline points="313.52 265.84 313.52 271.31 335.81 271.31" style="fill: none; stroke: rgb(38, 50, 56); stroke-linecap: round; stroke-linejoin: round; transform-origin: 324.665px 268.575px;" id="el4v9a6ehfhhg" class="animable"></polyline><polyline points="324.45 272.57 324.45 278.88 310.57 278.88" style="fill: none; stroke: rgb(38, 50, 56); stroke-linecap: round; stroke-linejoin: round; transform-origin: 317.51px 275.725px;" id="eltumsrgnqb3m" class="animable"></polyline><polyline points="313.94 280.98 313.94 286.03 332.02 286.03" style="fill: none; stroke: rgb(38, 50, 56); stroke-linecap: round; stroke-linejoin: round; transform-origin: 322.98px 283.505px;" id="el4tkh2r1b9ed" class="animable"></polyline><line x1="330.34" y1="279.3" x2="340.44" y2="279.3" style="fill: none; stroke: rgb(38, 50, 56); stroke-linecap: round; stroke-linejoin: round; transform-origin: 335.39px 279.3px;" id="el0wbgmml7fjee" class="animable"></line><line x1="324.45" y1="288.56" x2="324.45" y2="295.71" style="fill: none; stroke: rgb(38, 50, 56); stroke-linecap: round; stroke-linejoin: round; transform-origin: 324.45px 292.135px;" id="els8cr7vxehif" class="animable"></line><line x1="338.33" y1="270.47" x2="338.33" y2="265" style="fill: none; stroke: rgb(38, 50, 56); stroke-linecap: round; stroke-linejoin: round; transform-origin: 338.33px 267.735px;" id="elmm4kpvslb6" class="animable"></line><line x1="325.29" y1="263.32" x2="325.29" y2="257.43" style="fill: none; stroke: rgb(38, 50, 56); stroke-linecap: round; stroke-linejoin: round; transform-origin: 325.29px 260.375px;" id="elbdtop2xptgu" class="animable"></line><line x1="332.87" y1="264.16" x2="345.9" y2="264.16" style="fill: none; stroke: rgb(38, 50, 56); stroke-linecap: round; stroke-linejoin: round; transform-origin: 339.385px 264.16px;" id="elcqluhpokj3" class="animable"></line><polyline points="313.52 342.27 313.52 347.74 335.81 347.74" style="fill: none; stroke: rgb(38, 50, 56); stroke-linecap: round; stroke-linejoin: round; transform-origin: 324.665px 345.005px;" id="elullxf2yo4s" class="animable"></polyline><polyline points="324.45 349 324.45 355.31 310.57 355.31" style="fill: none; stroke: rgb(38, 50, 56); stroke-linecap: round; stroke-linejoin: round; transform-origin: 317.51px 352.155px;" id="elmznsua4968k" class="animable"></polyline><polyline points="313.94 357.41 313.94 362.46 332.02 362.46" style="fill: none; stroke: rgb(38, 50, 56); stroke-linecap: round; stroke-linejoin: round; transform-origin: 322.98px 359.935px;" id="ellf6vnd4kub" class="animable"></polyline><line x1="330.34" y1="355.73" x2="340.44" y2="355.73" style="fill: none; stroke: rgb(38, 50, 56); stroke-linecap: round; stroke-linejoin: round; transform-origin: 335.39px 355.73px;" id="eluwktv314iw" class="animable"></line><line x1="324.45" y1="364.98" x2="324.45" y2="372.13" style="fill: none; stroke: rgb(38, 50, 56); stroke-linecap: round; stroke-linejoin: round; transform-origin: 324.45px 368.555px;" id="ellsbcfbm0e1o" class="animable"></line><line x1="338.33" y1="346.9" x2="338.33" y2="341.43" style="fill: none; stroke: rgb(38, 50, 56); stroke-linecap: round; stroke-linejoin: round; transform-origin: 338.33px 344.165px;" id="eleye47t9aduv" class="animable"></line><line x1="325.29" y1="339.75" x2="325.29" y2="333.86" style="fill: none; stroke: rgb(38, 50, 56); stroke-linecap: round; stroke-linejoin: round; transform-origin: 325.29px 336.805px;" id="el3k8a7xilz2f" class="animable"></line><line x1="322.1" y1="340.59" x2="345.9" y2="340.59" style="fill: none; stroke: rgb(38, 50, 56); stroke-linecap: round; stroke-linejoin: round; transform-origin: 334px 340.59px;" id="eli6wsah09axi" class="animable"></line><polyline points="302.37 309.99 302.37 315.46 324.67 315.46" style="fill: none; stroke: rgb(38, 50, 56); stroke-linecap: round; stroke-linejoin: round; transform-origin: 313.52px 312.725px;" id="elgfaupgftsyk" class="animable"></polyline><polyline points="313.31 316.72 313.31 323.03 299.43 323.03" style="fill: none; stroke: rgb(38, 50, 56); stroke-linecap: round; stroke-linejoin: round; transform-origin: 306.37px 319.875px;" id="elgudz2rbrong" class="animable"></polyline><polyline points="302.79 325.13 302.79 330.18 320.88 330.18" style="fill: none; stroke: rgb(38, 50, 56); stroke-linecap: round; stroke-linejoin: round; transform-origin: 311.835px 327.655px;" id="eleu6t4ezvh" class="animable"></polyline><line x1="319.2" y1="323.45" x2="335.05" y2="323.45" style="fill: none; stroke: rgb(38, 50, 56); stroke-linecap: round; stroke-linejoin: round; transform-origin: 327.125px 323.45px;" id="el7a9v7ixx5no" class="animable"></line><line x1="313.31" y1="332.71" x2="313.31" y2="339.86" style="fill: none; stroke: rgb(38, 50, 56); stroke-linecap: round; stroke-linejoin: round; transform-origin: 313.31px 336.285px;" id="elj3y4d6e0lj" class="animable"></line><line x1="327.19" y1="314.62" x2="327.19" y2="309.15" style="fill: none; stroke: rgb(38, 50, 56); stroke-linecap: round; stroke-linejoin: round; transform-origin: 327.19px 311.885px;" id="elnxrx3sfk4ds" class="animable"></line><line x1="314.15" y1="307.47" x2="314.15" y2="301.58" style="fill: none; stroke: rgb(38, 50, 56); stroke-linecap: round; stroke-linejoin: round; transform-origin: 314.15px 304.525px;" id="elscprscvrbk" class="animable"></line><line x1="321.72" y1="308.31" x2="334.76" y2="308.31" style="fill: none; stroke: rgb(38, 50, 56); stroke-linecap: round; stroke-linejoin: round; transform-origin: 328.24px 308.31px;" id="el1gt92w1bb26" class="animable"></line><polyline points="279.94 207.13 279.94 212.6 302.24 212.6" style="fill: none; stroke: rgb(38, 50, 56); stroke-linecap: round; stroke-linejoin: round; transform-origin: 291.09px 209.865px;" id="elbiewh3dvl1j" class="animable"></polyline><polyline points="290.88 213.87 290.88 220.18 277 220.18" style="fill: none; stroke: rgb(38, 50, 56); stroke-linecap: round; stroke-linejoin: round; transform-origin: 283.94px 217.025px;" id="el5rkyx2tliis" class="animable"></polyline><polyline points="280.37 222.28 280.37 227.32 298.45 227.32" style="fill: none; stroke: rgb(38, 50, 56); stroke-linecap: round; stroke-linejoin: round; transform-origin: 289.41px 224.8px;" id="elpkzmzwr3sa" class="animable"></polyline><line x1="296.77" y1="220.6" x2="306.87" y2="220.6" style="fill: none; stroke: rgb(38, 50, 56); stroke-linecap: round; stroke-linejoin: round; transform-origin: 301.82px 220.6px;" id="elkuu7bv132y" class="animable"></line><line x1="290.88" y1="229.85" x2="290.88" y2="237" style="fill: none; stroke: rgb(38, 50, 56); stroke-linecap: round; stroke-linejoin: round; transform-origin: 290.88px 233.425px;" id="elovrqab5737e" class="animable"></line><line x1="304.76" y1="211.76" x2="304.76" y2="206.29" style="fill: none; stroke: rgb(38, 50, 56); stroke-linecap: round; stroke-linejoin: round; transform-origin: 304.76px 209.025px;" id="elazykgwlmx17" class="animable"></line><line x1="291.72" y1="204.61" x2="291.72" y2="198.72" style="fill: none; stroke: rgb(38, 50, 56); stroke-linecap: round; stroke-linejoin: round; transform-origin: 291.72px 201.665px;" id="elnu061dnsd5j" class="animable"></line><line x1="299.29" y1="205.45" x2="312.33" y2="205.45" style="fill: none; stroke: rgb(38, 50, 56); stroke-linecap: round; stroke-linejoin: round; transform-origin: 305.81px 205.45px;" id="elxtix3ya8b4" class="animable"></line><g id="el72ei5gnhgsf"><g style="opacity: 0.15; transform-origin: 204.585px 147.16px;" class="animable"><path d="M192.21,131.64c-3.59.09-7,.21-10.27.36v26.39q5.13-.44,10.27-.67Z" style="fill: rgb(38, 50, 56); transform-origin: 187.075px 145.015px;" id="el811p3rm2qp6" class="animable"></path><path d="M240.66,133.17c-3.15-.29-6.58-.57-10.27-.81v26.3c3.43.32,6.85.72,10.27,1.18Z" style="fill: rgb(38, 50, 56); transform-origin: 235.525px 146.1px;" id="elhty1n47l3lh" class="animable"></path><path d="M194.05,157.63q5.14-.19,10.27-.2V131.49h-.26q-5.17,0-10,.11Z" style="fill: rgb(38, 50, 56); transform-origin: 199.185px 144.56px;" id="eljesiekrfhi" class="animable"></path><path d="M228.55,132.24c-3.25-.2-6.68-.37-10.27-.49v26c3.43.17,6.85.4,10.27.71Z" style="fill: rgb(38, 50, 56); transform-origin: 223.415px 145.105px;" id="elwjuujvbj7ni" class="animable"></path><path d="M216.44,131.68c-3.3-.1-6.74-.16-10.27-.18v25.93q5.13,0,10.27.25Z" style="fill: rgb(38, 50, 56); transform-origin: 211.305px 144.59px;" id="elr8b9aam5mih" class="animable"></path><path d="M254.62,134.73V162l5,.82L262.78,136S259.86,135.43,254.62,134.73Z" style="fill: rgb(38, 50, 56); transform-origin: 258.7px 148.775px;" id="el1svc20ajd3e" class="animable"></path><path d="M252.78,134.49c-2.89-.36-6.33-.76-10.27-1.15v26.74c1.86.27,3.73.55,5.59.85l4.68.76Z" style="fill: rgb(38, 50, 56); transform-origin: 247.645px 147.515px;" id="elatskvgp4zw9" class="animable"></path><path d="M168,132.86c-3.9.31-7.34.62-10.27.93v27.68l4.82-.75c1.82-.29,3.63-.56,5.45-.81Z" style="fill: rgb(38, 50, 56); transform-origin: 162.865px 147.165px;" id="el1bdo43b5yfm" class="animable"></path><path d="M169.83,159.68c3.41-.44,6.84-.82,10.27-1.13V132.09c-3.68.19-7.11.4-10.27.64Z" style="fill: rgb(38, 50, 56); transform-origin: 174.965px 145.885px;" id="el6kk69qva8ra" class="animable"></path><path d="M155.87,134c-6.08.66-9.48,1.2-9.48,1.2l2.85,27.63,6.63-1.05Z" style="fill: rgb(38, 50, 56); transform-origin: 151.13px 148.415px;" id="elx6k9vwqjebl" class="animable"></path></g></g><rect x="152.99" y="168.11" width="102.91" height="214.21" style="fill: rgb(38, 50, 56); stroke: rgb(38, 50, 56); stroke-linecap: round; stroke-linejoin: round; transform-origin: 204.445px 275.215px;" id="elhc4gujia4zi" class="animable"></rect><path d="M248.1,160.93a270.51,270.51,0,0,0-85.57-.21l-13.29,2.09V387.18h6.18V169.43H254.8V387.18h6.86V162.81Z" style="fill: rgb(255, 255, 255); stroke: rgb(38, 50, 56); stroke-miterlimit: 10; transform-origin: 205.45px 272.3px;" id="eleu3uwx0koib" class="animable"></path><rect x="165.58" y="178.27" width="77.73" height="195.22" style="fill: rgb(38, 50, 56); stroke: rgb(255, 255, 255); stroke-linecap: round; stroke-linejoin: round; transform-origin: 204.445px 275.88px;" id="elsnp211fzycl" class="animable"></rect><rect x="174.2" y="298.84" width="60.51" height="60.95" style="fill: rgb(38, 50, 56); stroke: rgb(255, 255, 255); stroke-linecap: round; stroke-linejoin: round; transform-origin: 204.455px 329.315px;" id="elay2geomzrmc" class="animable"></rect><rect x="174.2" y="192.84" width="22.97" height="96.73" style="fill: rgb(255, 255, 255); transform-origin: 185.685px 241.205px;" id="elg8tl8qk9me" class="animable"></rect><g style="clip-path: url(&quot;#freepik--clip-path--inject-3&quot;); transform-origin: 185.675px 265.285px;" id="elyiiye82451e" class="animable"><polygon points="174.19 255.59 174.19 289.57 197.16 289.57 197.16 241 174.19 255.59" style="fill: rgb(10, 58, 64); transform-origin: 185.675px 265.285px;" id="elwrtfuzbryen" class="animable"></polygon><g id="elmwp67vuf1on"><polygon points="174.19 255.59 174.19 289.57 197.16 289.57 197.16 241 174.19 255.59" style="fill: rgb(255, 255, 255); opacity: 0.5; transform-origin: 185.675px 265.285px;" class="animable"></polygon></g></g><rect x="174.2" y="192.84" width="22.97" height="96.73" style="fill: none; stroke: rgb(38, 50, 56); stroke-linecap: round; stroke-linejoin: round; transform-origin: 185.685px 241.205px;" id="elcali0meia3g" class="animable"></rect><rect x="211.74" y="192.84" width="22.97" height="96.73" style="fill: rgb(255, 255, 255); transform-origin: 223.225px 241.205px;" id="elq2n5i1sugfo" class="animable"></rect><g style="clip-path: url(&quot;#freepik--clip-path-2--inject-3&quot;); transform-origin: 223.225px 253.37px;" id="elieluu4ek8ko" class="animable"><polygon points="211.74 231.75 211.74 289.57 234.71 289.57 234.71 217.17 211.74 231.75" style="fill: rgb(10, 58, 64); transform-origin: 223.225px 253.37px;" id="el2fc83lu2fq" class="animable"></polygon><g id="eldhacinju9h"><polygon points="211.74 231.75 211.74 289.57 234.71 289.57 234.71 217.17 211.74 231.75" style="fill: rgb(255, 255, 255); opacity: 0.5; transform-origin: 223.225px 253.37px;" class="animable"></polygon></g></g><rect x="211.74" y="192.84" width="22.97" height="96.73" style="fill: none; stroke: rgb(38, 50, 56); stroke-linecap: round; stroke-linejoin: round; transform-origin: 223.225px 241.205px;" id="el0b0151qnyczb" class="animable"></rect><rect x="181.65" y="306.35" width="45.6" height="45.93" style="fill: rgb(38, 50, 56); stroke: rgb(255, 255, 255); stroke-linecap: round; stroke-linejoin: round; transform-origin: 204.45px 329.315px;" id="el7hjuoxzdjwv" class="animable"></rect><rect x="245.13" y="262.33" width="8.03" height="2.99" style="fill: rgb(10, 58, 64); stroke: rgb(38, 50, 56); stroke-linecap: round; stroke-linejoin: round; transform-origin: 249.145px 263.825px;" id="elpuwl14ex7s" class="animable"></rect><rect x="245.13" y="304.33" width="8.03" height="2.99" style="fill: rgb(10, 58, 64); stroke: rgb(38, 50, 56); stroke-linecap: round; stroke-linejoin: round; transform-origin: 249.145px 305.825px;" id="elsd8h87axt2s" class="animable"></rect><path d="M244,317.84h0a1.34,1.34,0,0,1-1.33-1.33V253.79a1.33,1.33,0,0,1,1.33-1.32h0a1.32,1.32,0,0,1,1.32,1.32v62.72A1.33,1.33,0,0,1,244,317.84Z" style="fill: rgb(10, 58, 64); stroke: rgb(38, 50, 56); stroke-linecap: round; stroke-linejoin: round; transform-origin: 243.995px 285.155px;" id="elq2a22cdx0k" class="animable"></path><rect x="248.41" y="282.86" width="4.3" height="8.21" style="fill: rgb(10, 58, 64); stroke: rgb(38, 50, 56); stroke-linecap: round; stroke-linejoin: round; transform-origin: 250.56px 286.965px;" id="elfa5osxkyt2h" class="animable"></rect><polygon points="267 410.33 143.07 410.33 157.37 388.33 252.7 388.33 267 410.33" style="fill: rgb(10, 58, 64); stroke: rgb(38, 50, 56); stroke-linecap: round; stroke-linejoin: round; transform-origin: 205.035px 399.33px;" id="el83xhb1wez9" class="animable"></polygon><rect x="98.21" y="251.54" width="43.38" height="33.95" style="fill: rgb(38, 50, 56); stroke: rgb(38, 50, 56); stroke-linecap: round; stroke-linejoin: round; transform-origin: 119.9px 268.515px;" id="el67ne7k61a2k" class="animable"></rect><rect x="101.23" y="253.8" width="36.59" height="5.66" style="fill: rgb(255, 255, 255); stroke: rgb(38, 50, 56); stroke-linecap: round; stroke-linejoin: round; transform-origin: 119.525px 256.63px;" id="el4zwj7nizkxe" class="animable"></rect><rect x="101.44" y="264.34" width="35.82" height="13.78" style="fill: rgb(38, 50, 56); stroke: rgb(255, 255, 255); stroke-linecap: round; stroke-linejoin: round; transform-origin: 119.35px 271.23px;" id="ellubvbeng7zb" class="animable"></rect></g><g id="freepik--Plants--inject-3" class="animable" style="transform-origin: 203.33px 343.545px;"><path d="M284,302.53l-5.34-2.33a9.37,9.37,0,0,0,1.67,2.66,14.35,14.35,0,0,1,2,3s-5-3.67-8.34-4.34a41.1,41.1,0,0,0-7-.67l5,2.34-4,1,1,1.33h-7l4.67,3.34-2,2.66-2,3.34L268,313.2l-1.34,3.34,2.67-1.34-1.67,3h-3.33l4.33,2.34h-3l1.34,1-2,1.67,4.33.66-2.73,1.92,6.73-.92L271,328.21l5.67-1.33v1.66h31.35l.88-2.75,1.12-1.25,3.33-2.33-3.67-.34,1.67-1-1.33-1.33,2.33-1.67-1.67-2.33,2.34-4.67-5-.67,1-2.33v-4.34l-4.67-.33.67-4.67-3.67,1-2,.33-2.67-2.67-1,4.67-4-3.67-2-1.33-.66,4-3.34-.66Z" style="fill: rgb(10, 58, 64); transform-origin: 287.67px 312.7px;" id="elpzucqy3w83j" class="animable"></path><g id="elifum3efk3a"><path d="M284,302.53l-5.34-2.33a9.37,9.37,0,0,0,1.67,2.66,14.35,14.35,0,0,1,2,3s-5-3.67-8.34-4.34a41.1,41.1,0,0,0-7-.67l5,2.34-4,1,1,1.33h-7l4.67,3.34-2,2.66-2,3.34L268,313.2l-1.34,3.34,2.67-1.34-1.67,3h-3.33l4.33,2.34h-3l1.34,1-2,1.67,4.33.66-2.73,1.92,6.73-.92L271,328.21l5.67-1.33v1.66h31.35l.88-2.75,1.12-1.25,3.33-2.33-3.67-.34,1.67-1-1.33-1.33,2.33-1.67-1.67-2.33,2.34-4.67-5-.67,1-2.33v-4.34l-4.67-.33.67-4.67-3.67,1-2,.33-2.67-2.67-1,4.67-4-3.67-2-1.33-.66,4-3.34-.66Z" style="fill: rgb(255, 255, 255); opacity: 0.4; transform-origin: 287.67px 312.7px;" class="animable"></path></g><g id="elyssztk3c0g9"><path d="M278.7,328.54h29.35l.71-2.22-.71-.1,1-2.33v-4.34l-4.67-.33.67-4.67-3.67,1-2,.33-2.67-2.67-1,4.67-4-3.66-2-1.34-.66,4-3.34-.66L284,318.55l-5.34-2.33a9.37,9.37,0,0,0,1.67,2.66,14.35,14.35,0,0,1,2,3s-5-3.67-8.34-4.34a39,39,0,0,0-5.62-.63l-.27.48,3.89,1.82-3.95,1,.61.33h-.42l.76,1h-2l-2,1.66,4.33.66-2.73,1.92,6.73-.92L271,328.21l5.67-1.33v1.66Z" style="fill: rgb(38, 50, 56); opacity: 0.2; transform-origin: 287.02px 320.71px;" class="animable"></path></g><path d="M301.11,391.5H274.46l-1.3-4.55a177.52,177.52,0,0,1-6.74-53.6l.21-7.56h42.3l.21,6.95a177.59,177.59,0,0,1-6.51,53.34Z" style="fill: rgb(38, 50, 56); stroke: rgb(38, 50, 56); stroke-linecap: round; stroke-linejoin: round; transform-origin: 287.787px 358.645px;" id="elcvoleze2gaq" class="animable"></path><polygon points="98.77 326.72 97.13 323.44 99.59 321.26 97.13 321.26 98.5 319.62 94.4 319.62 98.77 317.16 94.68 316.34 97.41 314.43 93.31 310.61 98.23 310.61 96.59 308.7 98.5 307.33 97.41 305.69 99.32 304.05 100.96 305.14 98.77 300.23 102.6 302.14 103.96 298.59 105.6 299.41 106.75 297.12 107.24 296.13 108.61 299.14 112.98 296.68 113.8 298.86 117.07 298.04 118.17 301.6 118.71 295.59 122.26 299.14 124.17 296.4 124.99 299.96 127.72 298.59 128 300.5 129.36 299.14 129.09 302.41 134.55 299.41 132.64 303.51 136.74 303.51 135.1 305.69 138.38 305.96 137.28 307.6 141.93 307.88 139.74 313.07 141.66 313.07 140.71 315.42 140.56 315.8 140.02 317.98 141.93 318.53 140.91 320.81 140.84 320.99 142.47 323.99 139.47 323.44 141.66 325.36 140.27 325.79 138.1 327.27 98.77 326.72" style="fill: rgb(10, 58, 64); transform-origin: 117.89px 311.43px;" id="elgjywbcgcegc" class="animable"></polygon><g id="elbw02bgd4pv"><polygon points="98.77 326.72 97.13 323.44 99.59 321.26 97.13 321.26 98.5 319.62 94.4 319.62 98.77 317.16 94.68 316.34 97.41 314.43 93.31 310.61 98.23 310.61 96.59 308.7 98.5 307.33 97.41 305.69 99.32 304.05 100.96 305.14 98.77 300.23 102.6 302.14 103.96 298.59 105.6 299.41 106.75 297.12 107.24 296.13 108.61 299.14 112.98 296.68 113.8 298.86 117.07 298.04 118.17 301.6 118.71 295.59 122.26 299.14 124.17 296.4 124.99 299.96 127.72 298.59 128 300.5 129.36 299.14 129.09 302.41 134.55 299.41 132.64 303.51 136.74 303.51 135.1 305.69 138.38 305.96 137.28 307.6 141.93 307.88 139.74 313.07 141.66 313.07 140.71 315.42 140.56 315.8 140.02 317.98 141.93 318.53 140.91 320.81 140.84 320.99 142.47 323.99 139.47 323.44 141.66 325.36 140.27 325.79 138.1 327.27 98.77 326.72" style="fill: rgb(255, 255, 255); opacity: 0.4; transform-origin: 117.89px 311.43px;" class="animable"></polygon></g><g id="elsvuzdmgp0h"><polygon points="140.27 325.79 141.66 325.36 140.84 324.65 137.28 324.44 138.38 322.8 135.1 322.53 136.74 320.34 132.64 320.34 134.55 316.24 129.09 319.25 129.36 315.97 128 317.34 127.72 315.43 124.99 316.79 124.17 313.24 122.26 315.97 118.71 312.42 118.17 318.43 117.07 314.88 113.8 315.7 112.98 313.51 108.61 315.97 107.24 312.97 106.75 313.95 105.6 316.24 103.96 315.43 102.6 318.98 98.77 317.06 100.96 321.98 99.32 320.89 98.88 321.26 99.59 321.26 97.69 322.95 98.5 324.17 97.76 324.69 98.77 326.72 138.1 327.27 140.27 325.79" style="fill: rgb(38, 50, 56); opacity: 0.2; transform-origin: 119.675px 319.845px;" class="animable"></polygon></g><path d="M132.44,391.5H105.79l-1.3-4.55a177.52,177.52,0,0,1-6.74-53.6l.21-7.56h42.31l.21,6.95A177.28,177.28,0,0,1,134,386.08Z" style="fill: rgb(38, 50, 56); stroke: rgb(38, 50, 56); stroke-linecap: round; stroke-linejoin: round; transform-origin: 119.124px 358.645px;" id="elemz5ooo40d" class="animable"></path></g><g id="freepik--Shadow--inject-3" class="animable" style="transform-origin: 209.336px 406.328px;"><g id="eloc3ftj52erc"><path d="M272.58,401.84l-.19,0-.19,0-.35,0h-.2l-.49,0h-.22c-3.32-.11-10.79-.12-19.28,0s-15.56.33-18.29.52h0l-.18,0-.38,0h-.15l-.25,0-.12,0-.1,0s-.05,0,0,0a.81.81,0,0,0,.19,0h.12l.24,0h.22l.32,0h.32l.39,0h3.92c3.35,0,7.91,0,13,0a.53.53,0,0,0-.31.23l-21.23,0-.43-.22h.21l.32,0,.24,0,.24,0,.16,0,.14,0h.07s.05,0,0,0a.48.48,0,0,0-.18,0l-.19,0-.19,0-.35,0h-.2l-.49,0h-.45l-1.78-.92-1.35,0c-5.4-2.1-15.7-3.61-24.4-3.49s-12.78,1.84-10,4l-1.35,0,1.78.92h-.21l-.17,0-.38,0h-.15l-.26,0-.11,0-.1,0s-.05,0,0,0a.48.48,0,0,0,.18,0H190l.24,0h.22l.32,0h.32l.39,0h.26l.4.2-21.65.57q-.54-.12-1.17-.21c5-.08,9.42-.19,12.5-.31h.25l.59,0,.52,0,.5,0,.47,0,.41,0,.4,0,.33,0,.32,0,.25,0,.24,0,.15,0,.15,0h.07s0,0,0,0a.68.68,0,0,0-.19-.05h-.18l-.19,0-.35,0h-.21l-.48,0h-.22c-3.33-.11-10.8-.12-19.29,0s-15.55.33-18.28.52h0l-.17,0-.39,0h-.15l-.25,0-.11,0-.11,0s0,0,0,0a.82.82,0,0,0,.18,0h.12l.25,0h.22l.32,0h.31l.39,0h3.92c3.37,0,8,0,13.05,0-.45.17-.47.43.06.7l.28.14a14,14,0,0,0,5.36.87c1.31,0,2.1-.21,2.22-.49l22.64,0,1.28.66,6.15,1.22h.26l.45.42c-.11,0-.13.1,0,.17l.22.12-2.17,0-.22-.12a3.7,3.7,0,0,0-1.35-.21c-.5,0-.7.11-.46.24l.22.11-3.72.05,13.34,6.93,3.72,0,0,0h-.08a4.58,4.58,0,0,0,1.77.29l3.59-.05.21,0h.25l3.59-.05c.66,0,.93-.15.61-.32l-4,.06h-.11l0,0,4.65-.06,24.88-.35,0,0h-.19l-4,.06a4.6,4.6,0,0,0,1.77.28l3.59-.05h.46l3.59-.05c.64,0,.91-.15.63-.31h0l0,0h1.08L241.77,407H240.7l-.22-.11a3.48,3.48,0,0,0-1.35-.22c-.5,0-.71.12-.46.24l.22.12-2.17,0-.22-.12a3.66,3.66,0,0,0-1.35-.21c-.5,0-.7.11-.46.24l.22.11-1.16,0-1.22-.88,1.1-1.13-1.3-.68,20.29-.53a17.63,17.63,0,0,0,3.93.4c2,0,2.82-.46,1.84-1l-.27-.14a9.12,9.12,0,0,0-2.59-.68c5.06-.08,9.47-.19,12.57-.31h.25l.58,0,.52,0,.51,0,.46,0,.42,0,.4,0,.33,0,.32,0,.24,0,.24,0,.16,0,.14,0h.07s.05,0,0,0A.43.43,0,0,0,272.58,401.84ZM252.22,414l0,0-2.17,0,0,0Zm-37.44.54,0,0,2.17,0,0,0Z" style="fill: rgb(38, 50, 56); opacity: 0.3; transform-origin: 209.336px 406.328px;" class="animable"></path></g></g><g id="freepik--Drone--inject-3" class="animable animator-active" style="transform-origin: 355.42px 169.935px;"><polygon points="377.58 172.13 335.14 172.13 329.83 165.01 382.88 165.01 377.58 172.13" style="fill: rgb(38, 50, 56); stroke: rgb(38, 50, 56); stroke-linecap: round; stroke-linejoin: round; transform-origin: 356.355px 168.57px;" id="el9na6j8jxhba" class="animable"></polygon><polygon points="295.39 159.71 331.02 161.34 331.02 152.24 295.39 153.88 295.39 159.71" style="fill: rgb(255, 255, 255); stroke: rgb(38, 50, 56); stroke-linecap: round; stroke-linejoin: round; transform-origin: 313.205px 156.79px;" id="elmctdprtgre" class="animable"></polygon><path d="M381.14,150.75a25.28,25.28,0,0,0,.16-2.77,24.94,24.94,0,0,0-49.88,0,25.3,25.3,0,0,0,.15,2.77Z" style="fill: rgb(38, 50, 56); stroke: rgb(38, 50, 56); stroke-linecap: round; stroke-linejoin: round; stroke-width: 0.954545px; transform-origin: 356.36px 136.895px;" id="elko7swehxik8" class="animable"></path><polygon points="415.35 159.71 379.72 161.34 379.72 152.24 415.35 153.88 415.35 159.71" style="fill: rgb(255, 255, 255); stroke: rgb(38, 50, 56); stroke-linecap: round; stroke-linejoin: round; transform-origin: 397.535px 156.79px;" id="elr4kv95tdgs" class="animable"></polygon><rect x="329.83" y="144.02" width="53.05" height="20.98" style="fill: rgb(255, 255, 255); stroke: rgb(38, 50, 56); stroke-linecap: round; stroke-linejoin: round; transform-origin: 356.355px 154.51px;" id="elosmnrckk2w" class="animable"></rect><rect x="335.05" y="172.36" width="42.62" height="3.69" style="fill: rgb(255, 255, 255); stroke: rgb(38, 50, 56); stroke-linecap: round; stroke-linejoin: round; transform-origin: 356.36px 174.205px;" id="elbxlidstn6nf" class="animable"></rect><rect x="288.66" y="151.25" width="10.29" height="11.08" rx="3.17" style="fill: rgb(255, 255, 255); stroke: rgb(38, 50, 56); stroke-linecap: round; stroke-linejoin: round; transform-origin: 293.805px 156.79px;" id="elyd7shjxaz9g" class="animable"></rect><rect x="351.21" y="151.25" width="10.29" height="11.08" rx="3.17" style="fill: rgb(255, 255, 255); stroke: rgb(38, 50, 56); stroke-linecap: round; stroke-linejoin: round; transform-origin: 356.355px 156.79px;" id="ele8ps7fni95s" class="animable"></rect><g id="elpddzyeefp9"><rect x="411.78" y="151.25" width="10.29" height="11.08" rx="3.17" style="fill: rgb(255, 255, 255); stroke: rgb(38, 50, 56); stroke-linecap: round; stroke-linejoin: round; transform-origin: 416.925px 156.79px; transform: rotate(180deg);" class="animable"></rect></g><ellipse cx="293.81" cy="150.17" rx="28.99" ry="2.35" style="fill: rgb(255, 255, 255); stroke: rgb(38, 50, 56); stroke-linecap: round; stroke-linejoin: round; transform-origin: 293.81px 150.17px;" id="elpxu7i1wtufb" class="animable"></ellipse><path d="M322.8,150.17c0-.32-.77-.62-2.16-.89l-26.87.89-26.8-.89c-1.39.27-2.15.57-2.15.89,0,.6,2.79,1.15,7.37,1.57l21.58-1.57,21.62,1.57C320,151.32,322.8,150.77,322.8,150.17Z" style="fill: rgb(38, 50, 56); transform-origin: 293.81px 150.51px;" id="eluzoaz62dkuk" class="animable"></path><ellipse cx="417.03" cy="150.17" rx="28.99" ry="2.35" style="fill: rgb(255, 255, 255); stroke: rgb(38, 50, 56); stroke-linecap: round; stroke-linejoin: round; transform-origin: 417.03px 150.17px;" id="elul8lnrrty3" class="animable"></ellipse><path d="M446,150.17c0-.32-.77-.62-2.15-.89l-26.87.89-26.81-.89c-1.38.27-2.15.57-2.15.89,0,.6,2.79,1.15,7.38,1.57L417,150.17l21.62,1.57C443.22,151.32,446,150.77,446,150.17Z" style="fill: rgb(38, 50, 56); transform-origin: 417.01px 150.51px;" id="el8gokt3uvqfw" class="animable"></path><ellipse cx="356.36" cy="150.17" rx="28.99" ry="2.35" style="fill: rgb(255, 255, 255); stroke: rgb(38, 50, 56); stroke-linecap: round; stroke-linejoin: round; transform-origin: 356.36px 150.17px;" id="elxvzm3y3b0y" class="animable"></ellipse><path d="M385.35,150.17c0-.32-.77-.62-2.16-.89l-26.87.89-26.8-.89c-1.39.27-2.15.57-2.15.89,0,.6,2.79,1.15,7.37,1.57l21.58-1.57,21.62,1.57C382.55,151.32,385.35,150.77,385.35,150.17Z" style="fill: rgb(38, 50, 56); transform-origin: 356.36px 150.51px;" id="elbm69kwegxmo" class="animable"></path><path d="M380.62,174.1a1.29,1.29,0,0,0-1.29,1.29v39.75h-6.05a1.69,1.69,0,0,0,1.69,1.69h5.14a1.7,1.7,0,0,0,1.42-.77,1.33,1.33,0,0,0,.38-.92V175.39A1.29,1.29,0,0,0,380.62,174.1Z" style="fill: rgb(255, 255, 255); stroke: rgb(38, 50, 56); stroke-linecap: round; stroke-linejoin: round; transform-origin: 377.595px 195.465px;" id="el445q48es07i" class="animable"></path><path d="M387.59,175.39a1.29,1.29,0,1,0-2.58,0v39.75h-5.95a1.69,1.69,0,0,0,1.7,1.69h5.13a1.69,1.69,0,0,0,1.69-1.62s0,0,0-.07Z" style="fill: rgb(255, 255, 255); stroke: rgb(38, 50, 56); stroke-linecap: round; stroke-linejoin: round; transform-origin: 383.325px 195.465px;" id="elihzu2b06hzj" class="animable"></path><rect x="323.59" y="176.03" width="65.54" height="38.99" style="fill: rgb(38, 50, 56); stroke: rgb(38, 50, 56); stroke-linecap: round; stroke-linejoin: round; transform-origin: 356.36px 195.525px;" id="elg463u27fys" class="animable"></rect><rect x="343.79" y="176.03" width="45.33" height="38.99" style="fill: rgb(10, 58, 64); stroke: rgb(38, 50, 56); stroke-linecap: round; stroke-linejoin: round; transform-origin: 366.455px 195.525px;" id="el6v5pfha21k4" class="animable"></rect><path d="M331.48,215.14V175.39a1.29,1.29,0,0,0-2.58,0v39.75h-.11a1.69,1.69,0,0,0,1.7,1.69h5.13a1.69,1.69,0,0,0,1.69-1.69Z" style="fill: rgb(255, 255, 255); stroke: rgb(38, 50, 56); stroke-linecap: round; stroke-linejoin: round; transform-origin: 333.05px 195.468px;" id="eloj6pk9wfjc" class="animable"></path><path d="M337.16,215.14V175.39a1.29,1.29,0,0,0-2.58,0v39.75a1.68,1.68,0,0,0,1.69,1.69h5.13a1.69,1.69,0,0,0,1.7-1.69Z" style="fill: rgb(255, 255, 255); stroke: rgb(38, 50, 56); stroke-linecap: round; stroke-linejoin: round; transform-origin: 338.84px 195.465px;" id="elk3qlq0gimmr" class="animable"></path></g><defs>     <filter id="active" height="200%">         <feMorphology in="SourceAlpha" result="DILATED" operator="dilate" radius="2"></feMorphology>                <feFlood flood-color="#32DFEC" flood-opacity="1" result="PINK"></feFlood>        <feComposite in="PINK" in2="DILATED" operator="in" result="OUTLINE"></feComposite>        <feMerge>            <feMergeNode in="OUTLINE"></feMergeNode>            <feMergeNode in="SourceGraphic"></feMergeNode>        </feMerge>    </filter>    <filter id="hover" height="200%">        <feMorphology in="SourceAlpha" result="DILATED" operator="dilate" radius="2"></feMorphology>                <feFlood flood-color="#ff0000" flood-opacity="0.5" result="PINK"></feFlood>        <feComposite in="PINK" in2="DILATED" operator="in" result="OUTLINE"></feComposite>        <feMerge>            <feMergeNode in="OUTLINE"></feMergeNode>            <feMergeNode in="SourceGraphic"></feMergeNode>        </feMerge>            <feColorMatrix type="matrix" values="0   0   0   0   0                0   1   0   0   0                0   0   0   0   0                0   0   0   1   0 "></feColorMatrix>    </filter></defs><defs><clipPath id="freepik--clip-path--inject-3"><rect x="174.2" y="192.84" width="22.97" height="96.73" style="fill:#fff;stroke:#263238;stroke-linecap:round;stroke-linejoin:round"></rect></clipPath><clipPath id="freepik--clip-path-2--inject-3"><rect x="211.74" y="192.84" width="22.97" height="96.73" style="fill:#fff;stroke:#263238;stroke-linecap:round;stroke-linejoin:round"></rect></clipPath></defs></svg>